<?xml version="1.0" encoding="utf-8"?>
<svg version="1.1" xmlns="http://www.w3.org/2000/svg" xmlns:xlink="http://www.w3.org/1999/xlink" x="0px" y="0px" viewBox="0 0 1000 1000" enable-background="new 0 0 1000 1000" xml:space="preserve">
<g id="icon-menu"><path d="M500,10C229.4,10,10,229.4,10,500s219.4,490,490,490s490-219.4,490-490S770.6,10,500,10z M761.3,728.7H238.7c-18,0-32.7-14.6-32.7-32.7s14.6-32.7,32.7-32.7h522.7c18,0,32.7,14.6,32.7,32.7S779.4,728.7,761.3,728.7z M761.3,532.7H238.7c-18,0-32.7-14.6-32.7-32.7s14.6-32.7,32.7-32.7h522.7c18,0,32.7,14.6,32.7,32.7S779.4,532.7,761.3,532.7z M761.3,336.7H238.7c-18,0-32.7-14.6-32.7-32.7s14.6-32.7,32.7-32.7h522.7c18,0,32.7,14.6,32.7,32.7S779.4,336.7,761.3,336.7z"/></g>
</svg>
